<mxfile host="app.diagrams.net" modified="2021-03-24T04:57:01.012Z" agent="5.0 (Windows NT 10.0; Win64; x64) AppleWebKit/537.36 (KHTML, like Gecko) Chrome/87.0.4280.66 Safari/537.36" etag="ewyURXIjeQXSGo_B50pN" version="14.4.9" type="github">
  <diagram id="Nfh63HXnG00IeXIobHM5" name="Page-1">
    <mxGraphModel dx="2938" dy="957" grid="1" gridSize="10" guides="1" tooltips="1" connect="1" arrows="1" fold="1" page="1" pageScale="1" pageWidth="850" pageHeight="10000" math="0" shadow="0">
      <root>
        <mxCell id="0" />
        <mxCell id="1" parent="0" />
        <mxCell id="QGdB_GWfaGC43BAZfRZI-1" value="" style="triangle;whiteSpace=wrap;html=1;direction=south;" vertex="1" parent="1">
          <mxGeometry x="480" y="340" width="653.32" height="490" as="geometry" />
        </mxCell>
        <mxCell id="QGdB_GWfaGC43BAZfRZI-2" value="USD" style="ellipse;whiteSpace=wrap;html=1;aspect=fixed;" vertex="1" parent="1">
          <mxGeometry x="770" y="780" width="80" height="80" as="geometry" />
        </mxCell>
        <mxCell id="QGdB_GWfaGC43BAZfRZI-3" value="Human Coin" style="ellipse;whiteSpace=wrap;html=1;aspect=fixed;" vertex="1" parent="1">
          <mxGeometry x="550" y="385" width="80" height="80" as="geometry" />
        </mxCell>
        <mxCell id="QGdB_GWfaGC43BAZfRZI-4" value="BTC" style="ellipse;whiteSpace=wrap;html=1;aspect=fixed;" vertex="1" parent="1">
          <mxGeometry x="820" y="640" width="80" height="80" as="geometry" />
        </mxCell>
        <mxCell id="QGdB_GWfaGC43BAZfRZI-5" value="ETH" style="ellipse;whiteSpace=wrap;html=1;aspect=fixed;" vertex="1" parent="1">
          <mxGeometry x="710" y="630" width="80" height="80" as="geometry" />
        </mxCell>
        <mxCell id="QGdB_GWfaGC43BAZfRZI-6" value="XRP" style="ellipse;whiteSpace=wrap;html=1;aspect=fixed;" vertex="1" parent="1">
          <mxGeometry x="970" y="400" width="80" height="80" as="geometry" />
        </mxCell>
        <mxCell id="QGdB_GWfaGC43BAZfRZI-7" value="USDT" style="ellipse;whiteSpace=wrap;html=1;aspect=fixed;" vertex="1" parent="1">
          <mxGeometry x="760" y="700" width="80" height="80" as="geometry" />
        </mxCell>
        <mxCell id="QGdB_GWfaGC43BAZfRZI-8" value="BNB" style="ellipse;whiteSpace=wrap;html=1;aspect=fixed;" vertex="1" parent="1">
          <mxGeometry x="765" y="570" width="80" height="80" as="geometry" />
        </mxCell>
        <mxCell id="QGdB_GWfaGC43BAZfRZI-9" value="UNI" style="ellipse;whiteSpace=wrap;html=1;aspect=fixed;" vertex="1" parent="1">
          <mxGeometry x="810" y="490" width="80" height="80" as="geometry" />
        </mxCell>
        <mxCell id="QGdB_GWfaGC43BAZfRZI-10" value="BCH" style="ellipse;whiteSpace=wrap;html=1;aspect=fixed;" vertex="1" parent="1">
          <mxGeometry x="600" y="465" width="80" height="80" as="geometry" />
        </mxCell>
        <mxCell id="QGdB_GWfaGC43BAZfRZI-11" value="LTC" style="ellipse;whiteSpace=wrap;html=1;aspect=fixed;" vertex="1" parent="1">
          <mxGeometry x="920" y="465" width="80" height="80" as="geometry" />
        </mxCell>
        <mxCell id="QGdB_GWfaGC43BAZfRZI-12" value="DOT" style="ellipse;whiteSpace=wrap;html=1;aspect=fixed;" vertex="1" parent="1">
          <mxGeometry x="870" y="545" width="80" height="80" as="geometry" />
        </mxCell>
        <mxCell id="QGdB_GWfaGC43BAZfRZI-13" value="ADA" style="ellipse;whiteSpace=wrap;html=1;aspect=fixed;" vertex="1" parent="1">
          <mxGeometry x="660" y="530" width="80" height="80" as="geometry" />
        </mxCell>
        <mxCell id="QGdB_GWfaGC43BAZfRZI-14" value="DOGDE" style="ellipse;whiteSpace=wrap;html=1;aspect=fixed;" vertex="1" parent="1">
          <mxGeometry x="680" y="420" width="80" height="80" as="geometry" />
        </mxCell>
        <mxCell id="QGdB_GWfaGC43BAZfRZI-15" value="LINK" style="ellipse;whiteSpace=wrap;html=1;aspect=fixed;" vertex="1" parent="1">
          <mxGeometry x="850" y="420" width="80" height="80" as="geometry" />
        </mxCell>
        <mxCell id="QGdB_GWfaGC43BAZfRZI-16" value="THETA" style="ellipse;whiteSpace=wrap;html=1;aspect=fixed;" vertex="1" parent="1">
          <mxGeometry x="900" y="350" width="80" height="80" as="geometry" />
        </mxCell>
        <mxCell id="QGdB_GWfaGC43BAZfRZI-17" value="Human coin" style="ellipse;whiteSpace=wrap;html=1;aspect=fixed;" vertex="1" parent="1">
          <mxGeometry x="630" y="350" width="80" height="80" as="geometry" />
        </mxCell>
        <mxCell id="QGdB_GWfaGC43BAZfRZI-18" value="IOTA" style="ellipse;whiteSpace=wrap;html=1;aspect=fixed;" vertex="1" parent="1">
          <mxGeometry x="819.9999999999999" y="340" width="80" height="80" as="geometry" />
        </mxCell>
        <mxCell id="QGdB_GWfaGC43BAZfRZI-19" value="Human coin" style="ellipse;whiteSpace=wrap;html=1;aspect=fixed;" vertex="1" parent="1">
          <mxGeometry x="710" y="340" width="80" height="80" as="geometry" />
        </mxCell>
        <mxCell id="QGdB_GWfaGC43BAZfRZI-20" value="LUNA" style="ellipse;whiteSpace=wrap;html=1;aspect=fixed;" vertex="1" parent="1">
          <mxGeometry x="766.66" y="410" width="80" height="80" as="geometry" />
        </mxCell>
        <mxCell id="QGdB_GWfaGC43BAZfRZI-21" value="XRP" style="ellipse;whiteSpace=wrap;html=1;aspect=fixed;" vertex="1" parent="1">
          <mxGeometry x="730" y="490" width="80" height="80" as="geometry" />
        </mxCell>
        <mxCell id="QGdB_GWfaGC43BAZfRZI-22" value="System Architecture" style="text;html=1;strokeColor=none;fillColor=none;align=center;verticalAlign=middle;whiteSpace=wrap;rounded=0;fontStyle=1;fontSize=20;" vertex="1" parent="1">
          <mxGeometry x="420" y="270" width="260" height="60" as="geometry" />
        </mxCell>
        <mxCell id="QGdB_GWfaGC43BAZfRZI-23" value="Scam ometer" style="text;html=1;strokeColor=none;fillColor=none;align=center;verticalAlign=middle;whiteSpace=wrap;rounded=0;fontStyle=1;fontSize=15;" vertex="1" parent="1">
          <mxGeometry x="1170" y="290" width="40" height="20" as="geometry" />
        </mxCell>
        <mxCell id="QGdB_GWfaGC43BAZfRZI-24" value="" style="endArrow=none;html=1;" edge="1" parent="1" source="QGdB_GWfaGC43BAZfRZI-43">
          <mxGeometry width="50" height="50" relative="1" as="geometry">
            <mxPoint x="1190" y="840" as="sourcePoint" />
            <mxPoint x="1190" y="340" as="targetPoint" />
          </mxGeometry>
        </mxCell>
        <mxCell id="QGdB_GWfaGC43BAZfRZI-25" value="5" style="text;html=1;strokeColor=none;fillColor=none;align=center;verticalAlign=middle;whiteSpace=wrap;rounded=0;" vertex="1" parent="1">
          <mxGeometry x="1190" y="340" width="40" height="20" as="geometry" />
        </mxCell>
        <mxCell id="QGdB_GWfaGC43BAZfRZI-26" value="100" style="text;html=1;strokeColor=none;fillColor=none;align=center;verticalAlign=middle;whiteSpace=wrap;rounded=0;" vertex="1" parent="1">
          <mxGeometry x="1200" y="820" width="40" height="20" as="geometry" />
        </mxCell>
        <mxCell id="QGdB_GWfaGC43BAZfRZI-27" value="&lt;b&gt;&lt;font style=&quot;font-size: 15px&quot;&gt;Content: Crypto Space&lt;/font&gt;&lt;/b&gt;" style="text;html=1;strokeColor=none;fillColor=none;align=center;verticalAlign=middle;whiteSpace=wrap;rounded=0;" vertex="1" parent="1">
          <mxGeometry x="486.68" y="680" width="140" height="20" as="geometry" />
        </mxCell>
        <mxCell id="QGdB_GWfaGC43BAZfRZI-28" value="" style="triangle;whiteSpace=wrap;html=1;direction=north;dashed=1;" vertex="1" parent="1">
          <mxGeometry x="486.68" y="990" width="653.32" height="490" as="geometry" />
        </mxCell>
        <mxCell id="QGdB_GWfaGC43BAZfRZI-29" value="World Coin" style="ellipse;whiteSpace=wrap;html=1;aspect=fixed;fontSize=12;dashed=1;" vertex="1" parent="1">
          <mxGeometry x="771.6800000000001" y="940" width="80" height="80" as="geometry" />
        </mxCell>
        <mxCell id="QGdB_GWfaGC43BAZfRZI-30" value="" style="endArrow=none;dashed=1;html=1;dashPattern=1 3;strokeWidth=2;fontSize=12;" edge="1" parent="1">
          <mxGeometry width="50" height="50" relative="1" as="geometry">
            <mxPoint x="430" y="890" as="sourcePoint" />
            <mxPoint x="1250" y="890" as="targetPoint" />
          </mxGeometry>
        </mxCell>
        <mxCell id="QGdB_GWfaGC43BAZfRZI-31" value="Paradox" style="edgeLabel;html=1;align=center;verticalAlign=middle;resizable=0;points=[];fontSize=15;fontStyle=1" vertex="1" connectable="0" parent="QGdB_GWfaGC43BAZfRZI-30">
          <mxGeometry x="-0.5585" y="1" relative="1" as="geometry">
            <mxPoint as="offset" />
          </mxGeometry>
        </mxCell>
        <mxCell id="QGdB_GWfaGC43BAZfRZI-32" value="" style="endArrow=classic;html=1;fontSize=15;exitX=0.5;exitY=0;exitDx=0;exitDy=0;entryX=0.445;entryY=0.781;entryDx=0;entryDy=0;entryPerimeter=0;" edge="1" parent="1" source="QGdB_GWfaGC43BAZfRZI-27" target="QGdB_GWfaGC43BAZfRZI-1">
          <mxGeometry width="50" height="50" relative="1" as="geometry">
            <mxPoint x="650" y="700" as="sourcePoint" />
            <mxPoint x="700" y="650" as="targetPoint" />
            <Array as="points">
              <mxPoint x="557" y="600" />
            </Array>
          </mxGeometry>
        </mxCell>
        <mxCell id="QGdB_GWfaGC43BAZfRZI-33" value="Backed by" style="text;html=1;strokeColor=none;fillColor=none;align=center;verticalAlign=middle;whiteSpace=wrap;rounded=0;fontSize=15;fontStyle=1" vertex="1" parent="1">
          <mxGeometry x="680" y="810" width="100" height="20" as="geometry" />
        </mxCell>
        <mxCell id="QGdB_GWfaGC43BAZfRZI-34" value="" style="ellipse;whiteSpace=wrap;html=1;aspect=fixed;fontSize=15;" vertex="1" parent="1">
          <mxGeometry x="540" y="1400" width="80" height="80" as="geometry" />
        </mxCell>
        <mxCell id="QGdB_GWfaGC43BAZfRZI-35" value="" style="ellipse;whiteSpace=wrap;html=1;aspect=fixed;fontSize=15;" vertex="1" parent="1">
          <mxGeometry x="630" y="1400" width="80" height="80" as="geometry" />
        </mxCell>
        <mxCell id="QGdB_GWfaGC43BAZfRZI-36" value="" style="ellipse;whiteSpace=wrap;html=1;aspect=fixed;fontSize=15;" vertex="1" parent="1">
          <mxGeometry x="730" y="1400" width="80" height="80" as="geometry" />
        </mxCell>
        <mxCell id="QGdB_GWfaGC43BAZfRZI-37" value="" style="ellipse;whiteSpace=wrap;html=1;aspect=fixed;fontSize=15;" vertex="1" parent="1">
          <mxGeometry x="830" y="1400" width="80" height="80" as="geometry" />
        </mxCell>
        <mxCell id="QGdB_GWfaGC43BAZfRZI-38" value="" style="ellipse;whiteSpace=wrap;html=1;aspect=fixed;fontSize=15;" vertex="1" parent="1">
          <mxGeometry x="910" y="1400" width="80" height="80" as="geometry" />
        </mxCell>
        <mxCell id="QGdB_GWfaGC43BAZfRZI-39" value="" style="ellipse;whiteSpace=wrap;html=1;aspect=fixed;fontSize=15;" vertex="1" parent="1">
          <mxGeometry x="990" y="1400" width="80" height="80" as="geometry" />
        </mxCell>
        <mxCell id="QGdB_GWfaGC43BAZfRZI-40" value="" style="endArrow=none;html=1;strokeWidth=5;fontSize=15;fillColor=#008a00;strokeColor=#005700;" edge="1" parent="1">
          <mxGeometry width="50" height="50" relative="1" as="geometry">
            <mxPoint x="435" y="1390" as="sourcePoint" />
            <mxPoint x="1120" y="1390" as="targetPoint" />
          </mxGeometry>
        </mxCell>
        <mxCell id="QGdB_GWfaGC43BAZfRZI-41" value="Natural law" style="text;html=1;strokeColor=none;fillColor=none;align=center;verticalAlign=middle;whiteSpace=wrap;rounded=0;dashed=1;fontSize=15;" vertex="1" parent="1">
          <mxGeometry x="420" y="1360" width="100" height="20" as="geometry" />
        </mxCell>
        <mxCell id="QGdB_GWfaGC43BAZfRZI-42" value="" style="endArrow=classic;html=1;strokeWidth=5;fontSize=15;fillColor=#008a00;strokeColor=#005700;" edge="1" parent="1">
          <mxGeometry width="50" height="50" relative="1" as="geometry">
            <mxPoint x="1080" y="1439.5" as="sourcePoint" />
            <mxPoint x="1160" y="1439.5" as="targetPoint" />
            <Array as="points">
              <mxPoint x="1120" y="1439.5" />
            </Array>
          </mxGeometry>
        </mxCell>
        <mxCell id="QGdB_GWfaGC43BAZfRZI-43" value="" style="rounded=1;whiteSpace=wrap;html=1;dashed=1;fontSize=15;fillColor=#d80073;strokeColor=#A50040;fontColor=#ffffff;" vertex="1" parent="1">
          <mxGeometry x="1160" y="730" width="60" height="30" as="geometry" />
        </mxCell>
        <mxCell id="QGdB_GWfaGC43BAZfRZI-44" value="" style="endArrow=none;html=1;" edge="1" parent="1" target="QGdB_GWfaGC43BAZfRZI-43">
          <mxGeometry width="50" height="50" relative="1" as="geometry">
            <mxPoint x="1190" y="840" as="sourcePoint" />
            <mxPoint x="1190" y="340" as="targetPoint" />
          </mxGeometry>
        </mxCell>
        <mxCell id="QGdB_GWfaGC43BAZfRZI-45" value="" style="endArrow=classic;html=1;strokeWidth=5;fontSize=15;fillColor=#d80073;strokeColor=#A50040;" edge="1" parent="1">
          <mxGeometry width="50" height="50" relative="1" as="geometry">
            <mxPoint x="660" y="980" as="sourcePoint" />
            <mxPoint x="750" y="980" as="targetPoint" />
          </mxGeometry>
        </mxCell>
        <mxCell id="QGdB_GWfaGC43BAZfRZI-46" value="Human wants" style="text;html=1;strokeColor=none;fillColor=none;align=center;verticalAlign=middle;whiteSpace=wrap;rounded=0;dashed=1;fontSize=15;" vertex="1" parent="1">
          <mxGeometry x="480" y="970" width="170" height="20" as="geometry" />
        </mxCell>
      </root>
    </mxGraphModel>
  </diagram>
</mxfile>
